<svg width="8" height="9" viewBox="0 0 8 9" fill="none" xmlns="http://www.w3.org/2000/svg">
<path d="M6.63883 2.95204L6.67792 2.95258C6.82296 2.96461 6.93412 3.08508 6.94178 3.23005L6.93803 3.31089L6.8141 4.82442L6.68412 6.30144C6.65662 6.59631 6.63202 6.84501 6.61077 7.04078C6.53697 7.72307 6.09397 8.14489 5.4263 8.15723C4.38592 8.17621 3.38588 8.1758 2.41476 8.15458C1.7664 8.14082 1.33014 7.71424 1.25793 7.04236L1.20803 6.54735L1.12086 5.58717L1.03157 4.53352L0.9295 3.26874C0.916815 3.10647 1.03481 2.96437 1.19305 2.95136C1.33811 2.93943 1.46662 3.04011 1.49681 3.18197L1.50854 3.29789L1.60439 4.4836L1.70906 5.71261C1.75601 6.24465 1.79674 6.67522 1.82934 6.97768C1.87049 7.36056 2.07206 7.55765 2.42683 7.56518C3.39037 7.58623 4.38295 7.58665 5.41601 7.56779C5.79236 7.56084 5.99721 7.36577 6.03941 6.97569L6.08931 6.48336C6.10392 6.33164 6.11954 6.16413 6.13606 5.98217L6.24137 4.77352L6.36825 3.22264C6.37998 3.07389 6.49745 2.9599 6.63883 2.95204ZM0.68593 2.27097C0.527182 2.27093 0.39852 2.13893 0.398556 1.97614C0.398589 1.82691 0.506753 1.70361 0.647056 1.68412L0.686061 1.68144L1.9383 1.68172C2.08711 1.68175 2.21741 1.58359 2.26403 1.44212L2.27545 1.39844L2.37287 0.902172C2.45865 0.573498 2.73698 0.339537 3.0631 0.313214L3.12477 0.31074L4.74708 0.3111C5.0786 0.311173 5.3713 0.525926 5.48392 0.85769L5.50289 0.921243L5.59589 1.39906C5.62509 1.54875 5.74447 1.66058 5.88892 1.6797L5.93294 1.6826L7.18525 1.68288C7.344 1.68292 7.47266 1.81492 7.47263 1.97771C7.47259 2.12694 7.36443 2.25024 7.22413 2.26973L7.18512 2.27241L0.68593 2.27097ZM4.74695 0.900627L3.12464 0.900267C3.04399 0.900249 2.97229 0.94864 2.9425 1.00947L2.93239 1.0362L2.83913 1.51421C2.82773 1.57255 2.8112 1.62873 2.7901 1.68229L5.08118 1.68288C5.06803 1.64945 5.05665 1.61501 5.04719 1.57966L5.03216 1.51457L4.94331 1.05502C4.92254 0.975281 4.85834 0.916894 4.78087 0.903529L4.74695 0.900627Z" fill="#FF7CA3"/>
</svg>
